<mxfile host="app.diagrams.net" modified="2023-03-30T16:55:06.089Z" agent="Mozilla/5.0 (Windows NT 10.0; Win64; x64) AppleWebKit/537.36 (KHTML, like Gecko) Chrome/111.0.0.0 Safari/537.36 Edg/111.0.1661.54" etag="ToNzTwCdb-LIA0xvRbaQ" version="21.1.0" type="device">
  <diagram name="PÃ¡gina-1" id="QY2ID5dnq3gS9CrYzEFO">
    <mxGraphModel dx="1290" dy="573" grid="1" gridSize="10" guides="1" tooltips="1" connect="1" arrows="1" fold="1" page="1" pageScale="1" pageWidth="850" pageHeight="1100" math="0" shadow="0">
      <root>
        <mxCell id="0" />
        <mxCell id="1" parent="0" />
        <mxCell id="BvxNHtZPLVj_3CfEgY2a-19" value="" style="edgeStyle=orthogonalEdgeStyle;rounded=0;orthogonalLoop=1;jettySize=auto;html=1;" edge="1" parent="1" source="BvxNHtZPLVj_3CfEgY2a-1" target="BvxNHtZPLVj_3CfEgY2a-18">
          <mxGeometry relative="1" as="geometry" />
        </mxCell>
        <mxCell id="BvxNHtZPLVj_3CfEgY2a-26" style="edgeStyle=orthogonalEdgeStyle;rounded=0;orthogonalLoop=1;jettySize=auto;html=1;entryX=0;entryY=0.5;entryDx=0;entryDy=0;" edge="1" parent="1" source="BvxNHtZPLVj_3CfEgY2a-1" target="BvxNHtZPLVj_3CfEgY2a-25">
          <mxGeometry relative="1" as="geometry" />
        </mxCell>
        <mxCell id="BvxNHtZPLVj_3CfEgY2a-1" value="alumnos" style="whiteSpace=wrap;html=1;align=center;fillColor=#CCFFCC;" vertex="1" parent="1">
          <mxGeometry x="210" y="120" width="100" height="40" as="geometry" />
        </mxCell>
        <mxCell id="BvxNHtZPLVj_3CfEgY2a-2" value="ciudades" style="whiteSpace=wrap;html=1;align=center;fillColor=#CCFFCC;" vertex="1" parent="1">
          <mxGeometry x="600" y="120" width="100" height="40" as="geometry" />
        </mxCell>
        <mxCell id="BvxNHtZPLVj_3CfEgY2a-13" value="" style="edgeStyle=orthogonalEdgeStyle;rounded=0;orthogonalLoop=1;jettySize=auto;html=1;" edge="1" parent="1" source="BvxNHtZPLVj_3CfEgY2a-3" target="BvxNHtZPLVj_3CfEgY2a-1">
          <mxGeometry relative="1" as="geometry" />
        </mxCell>
        <mxCell id="BvxNHtZPLVj_3CfEgY2a-3" value="nombre" style="ellipse;whiteSpace=wrap;html=1;align=center;fillColor=#FFFFCC;" vertex="1" parent="1">
          <mxGeometry x="130" y="20" width="100" height="40" as="geometry" />
        </mxCell>
        <mxCell id="BvxNHtZPLVj_3CfEgY2a-11" value="" style="edgeStyle=orthogonalEdgeStyle;rounded=0;orthogonalLoop=1;jettySize=auto;html=1;" edge="1" parent="1" source="BvxNHtZPLVj_3CfEgY2a-4" target="BvxNHtZPLVj_3CfEgY2a-1">
          <mxGeometry relative="1" as="geometry" />
        </mxCell>
        <mxCell id="BvxNHtZPLVj_3CfEgY2a-4" value="apellido" style="ellipse;whiteSpace=wrap;html=1;align=center;fillColor=#FFFFCC;" vertex="1" parent="1">
          <mxGeometry x="30" y="70" width="100" height="40" as="geometry" />
        </mxCell>
        <mxCell id="BvxNHtZPLVj_3CfEgY2a-15" value="" style="edgeStyle=orthogonalEdgeStyle;rounded=0;orthogonalLoop=1;jettySize=auto;html=1;" edge="1" parent="1" source="BvxNHtZPLVj_3CfEgY2a-5" target="BvxNHtZPLVj_3CfEgY2a-1">
          <mxGeometry relative="1" as="geometry" />
        </mxCell>
        <mxCell id="BvxNHtZPLVj_3CfEgY2a-5" value="fecha nac." style="ellipse;whiteSpace=wrap;html=1;align=center;fillColor=#FFFFCC;" vertex="1" parent="1">
          <mxGeometry x="30" y="120" width="100" height="40" as="geometry" />
        </mxCell>
        <mxCell id="BvxNHtZPLVj_3CfEgY2a-12" value="" style="edgeStyle=orthogonalEdgeStyle;rounded=0;orthogonalLoop=1;jettySize=auto;html=1;" edge="1" parent="1" source="BvxNHtZPLVj_3CfEgY2a-7" target="BvxNHtZPLVj_3CfEgY2a-1">
          <mxGeometry relative="1" as="geometry" />
        </mxCell>
        <mxCell id="BvxNHtZPLVj_3CfEgY2a-7" value="nacionalidad" style="ellipse;whiteSpace=wrap;html=1;align=center;fillColor=#FFFFCC;" vertex="1" parent="1">
          <mxGeometry x="30" y="170" width="100" height="40" as="geometry" />
        </mxCell>
        <mxCell id="BvxNHtZPLVj_3CfEgY2a-14" value="" style="edgeStyle=orthogonalEdgeStyle;rounded=0;orthogonalLoop=1;jettySize=auto;html=1;" edge="1" parent="1" source="BvxNHtZPLVj_3CfEgY2a-8" target="BvxNHtZPLVj_3CfEgY2a-1">
          <mxGeometry relative="1" as="geometry" />
        </mxCell>
        <mxCell id="BvxNHtZPLVj_3CfEgY2a-8" value="color" style="ellipse;whiteSpace=wrap;html=1;align=center;fillColor=#FFFFCC;" vertex="1" parent="1">
          <mxGeometry x="130" y="220" width="100" height="40" as="geometry" />
        </mxCell>
        <mxCell id="BvxNHtZPLVj_3CfEgY2a-20" value="" style="edgeStyle=orthogonalEdgeStyle;rounded=0;orthogonalLoop=1;jettySize=auto;html=1;" edge="1" parent="1" source="BvxNHtZPLVj_3CfEgY2a-18" target="BvxNHtZPLVj_3CfEgY2a-2">
          <mxGeometry relative="1" as="geometry" />
        </mxCell>
        <mxCell id="BvxNHtZPLVj_3CfEgY2a-18" value="nacio" style="shape=rhombus;perimeter=rhombusPerimeter;whiteSpace=wrap;html=1;align=center;fillColor=#FFCCCC;" vertex="1" parent="1">
          <mxGeometry x="390" y="60" width="120" height="60" as="geometry" />
        </mxCell>
        <mxCell id="BvxNHtZPLVj_3CfEgY2a-23" value="" style="edgeStyle=orthogonalEdgeStyle;rounded=0;orthogonalLoop=1;jettySize=auto;html=1;" edge="1" parent="1" source="BvxNHtZPLVj_3CfEgY2a-21" target="BvxNHtZPLVj_3CfEgY2a-2">
          <mxGeometry relative="1" as="geometry" />
        </mxCell>
        <mxCell id="BvxNHtZPLVj_3CfEgY2a-21" value="nombre" style="ellipse;whiteSpace=wrap;html=1;align=center;fillColor=#FFFFCC;" vertex="1" parent="1">
          <mxGeometry x="720" y="70" width="100" height="40" as="geometry" />
        </mxCell>
        <mxCell id="BvxNHtZPLVj_3CfEgY2a-24" value="" style="edgeStyle=orthogonalEdgeStyle;rounded=0;orthogonalLoop=1;jettySize=auto;html=1;" edge="1" parent="1" source="BvxNHtZPLVj_3CfEgY2a-22" target="BvxNHtZPLVj_3CfEgY2a-2">
          <mxGeometry relative="1" as="geometry" />
        </mxCell>
        <mxCell id="BvxNHtZPLVj_3CfEgY2a-22" value="provincia" style="ellipse;whiteSpace=wrap;html=1;align=center;fillColor=#FFFFCC;" vertex="1" parent="1">
          <mxGeometry x="720" y="170" width="100" height="40" as="geometry" />
        </mxCell>
        <mxCell id="BvxNHtZPLVj_3CfEgY2a-27" style="edgeStyle=orthogonalEdgeStyle;rounded=0;orthogonalLoop=1;jettySize=auto;html=1;entryX=0;entryY=0.5;entryDx=0;entryDy=0;" edge="1" parent="1" source="BvxNHtZPLVj_3CfEgY2a-25" target="BvxNHtZPLVj_3CfEgY2a-2">
          <mxGeometry relative="1" as="geometry" />
        </mxCell>
        <mxCell id="BvxNHtZPLVj_3CfEgY2a-25" value="vive" style="shape=rhombus;perimeter=rhombusPerimeter;whiteSpace=wrap;html=1;align=center;fillColor=#FFCCCC;" vertex="1" parent="1">
          <mxGeometry x="390" y="170" width="120" height="60" as="geometry" />
        </mxCell>
        <mxCell id="BvxNHtZPLVj_3CfEgY2a-32" value="alumnos" style="shape=table;startSize=30;container=1;collapsible=1;childLayout=tableLayout;fixedRows=1;rowLines=0;fontStyle=1;align=center;resizeLast=1;html=1;" vertex="1" parent="1">
          <mxGeometry x="100" y="360" width="180" height="270" as="geometry" />
        </mxCell>
        <mxCell id="BvxNHtZPLVj_3CfEgY2a-33" value="" style="shape=tableRow;horizontal=0;startSize=0;swimlaneHead=0;swimlaneBody=0;fillColor=none;collapsible=0;dropTarget=0;points=[[0,0.5],[1,0.5]];portConstraint=eastwest;top=0;left=0;right=0;bottom=1;" vertex="1" parent="BvxNHtZPLVj_3CfEgY2a-32">
          <mxGeometry y="30" width="180" height="30" as="geometry" />
        </mxCell>
        <mxCell id="BvxNHtZPLVj_3CfEgY2a-34" value="PK" style="shape=partialRectangle;connectable=0;fillColor=none;top=0;left=0;bottom=0;right=0;fontStyle=1;overflow=hidden;whiteSpace=wrap;html=1;" vertex="1" parent="BvxNHtZPLVj_3CfEgY2a-33">
          <mxGeometry width="30" height="30" as="geometry">
            <mxRectangle width="30" height="30" as="alternateBounds" />
          </mxGeometry>
        </mxCell>
        <mxCell id="BvxNHtZPLVj_3CfEgY2a-35" value="alumno_id" style="shape=partialRectangle;connectable=0;fillColor=none;top=0;left=0;bottom=0;right=0;align=left;spacingLeft=6;fontStyle=5;overflow=hidden;whiteSpace=wrap;html=1;" vertex="1" parent="BvxNHtZPLVj_3CfEgY2a-33">
          <mxGeometry x="30" width="150" height="30" as="geometry">
            <mxRectangle width="150" height="30" as="alternateBounds" />
          </mxGeometry>
        </mxCell>
        <mxCell id="BvxNHtZPLVj_3CfEgY2a-36" value="" style="shape=tableRow;horizontal=0;startSize=0;swimlaneHead=0;swimlaneBody=0;fillColor=none;collapsible=0;dropTarget=0;points=[[0,0.5],[1,0.5]];portConstraint=eastwest;top=0;left=0;right=0;bottom=0;" vertex="1" parent="BvxNHtZPLVj_3CfEgY2a-32">
          <mxGeometry y="60" width="180" height="30" as="geometry" />
        </mxCell>
        <mxCell id="BvxNHtZPLVj_3CfEgY2a-37" value="" style="shape=partialRectangle;connectable=0;fillColor=none;top=0;left=0;bottom=0;right=0;editable=1;overflow=hidden;whiteSpace=wrap;html=1;" vertex="1" parent="BvxNHtZPLVj_3CfEgY2a-36">
          <mxGeometry width="30" height="30" as="geometry">
            <mxRectangle width="30" height="30" as="alternateBounds" />
          </mxGeometry>
        </mxCell>
        <mxCell id="BvxNHtZPLVj_3CfEgY2a-38" value="nombre" style="shape=partialRectangle;connectable=0;fillColor=none;top=0;left=0;bottom=0;right=0;align=left;spacingLeft=6;overflow=hidden;whiteSpace=wrap;html=1;" vertex="1" parent="BvxNHtZPLVj_3CfEgY2a-36">
          <mxGeometry x="30" width="150" height="30" as="geometry">
            <mxRectangle width="150" height="30" as="alternateBounds" />
          </mxGeometry>
        </mxCell>
        <mxCell id="BvxNHtZPLVj_3CfEgY2a-39" value="" style="shape=tableRow;horizontal=0;startSize=0;swimlaneHead=0;swimlaneBody=0;fillColor=none;collapsible=0;dropTarget=0;points=[[0,0.5],[1,0.5]];portConstraint=eastwest;top=0;left=0;right=0;bottom=0;" vertex="1" parent="BvxNHtZPLVj_3CfEgY2a-32">
          <mxGeometry y="90" width="180" height="30" as="geometry" />
        </mxCell>
        <mxCell id="BvxNHtZPLVj_3CfEgY2a-40" value="" style="shape=partialRectangle;connectable=0;fillColor=none;top=0;left=0;bottom=0;right=0;editable=1;overflow=hidden;whiteSpace=wrap;html=1;" vertex="1" parent="BvxNHtZPLVj_3CfEgY2a-39">
          <mxGeometry width="30" height="30" as="geometry">
            <mxRectangle width="30" height="30" as="alternateBounds" />
          </mxGeometry>
        </mxCell>
        <mxCell id="BvxNHtZPLVj_3CfEgY2a-41" value="apellido" style="shape=partialRectangle;connectable=0;fillColor=none;top=0;left=0;bottom=0;right=0;align=left;spacingLeft=6;overflow=hidden;whiteSpace=wrap;html=1;" vertex="1" parent="BvxNHtZPLVj_3CfEgY2a-39">
          <mxGeometry x="30" width="150" height="30" as="geometry">
            <mxRectangle width="150" height="30" as="alternateBounds" />
          </mxGeometry>
        </mxCell>
        <mxCell id="BvxNHtZPLVj_3CfEgY2a-42" value="" style="shape=tableRow;horizontal=0;startSize=0;swimlaneHead=0;swimlaneBody=0;fillColor=none;collapsible=0;dropTarget=0;points=[[0,0.5],[1,0.5]];portConstraint=eastwest;top=0;left=0;right=0;bottom=0;" vertex="1" parent="BvxNHtZPLVj_3CfEgY2a-32">
          <mxGeometry y="120" width="180" height="30" as="geometry" />
        </mxCell>
        <mxCell id="BvxNHtZPLVj_3CfEgY2a-43" value="" style="shape=partialRectangle;connectable=0;fillColor=none;top=0;left=0;bottom=0;right=0;editable=1;overflow=hidden;whiteSpace=wrap;html=1;" vertex="1" parent="BvxNHtZPLVj_3CfEgY2a-42">
          <mxGeometry width="30" height="30" as="geometry">
            <mxRectangle width="30" height="30" as="alternateBounds" />
          </mxGeometry>
        </mxCell>
        <mxCell id="BvxNHtZPLVj_3CfEgY2a-44" value="fec. nac." style="shape=partialRectangle;connectable=0;fillColor=none;top=0;left=0;bottom=0;right=0;align=left;spacingLeft=6;overflow=hidden;whiteSpace=wrap;html=1;" vertex="1" parent="BvxNHtZPLVj_3CfEgY2a-42">
          <mxGeometry x="30" width="150" height="30" as="geometry">
            <mxRectangle width="150" height="30" as="alternateBounds" />
          </mxGeometry>
        </mxCell>
        <mxCell id="BvxNHtZPLVj_3CfEgY2a-46" value="" style="shape=tableRow;horizontal=0;startSize=0;swimlaneHead=0;swimlaneBody=0;fillColor=none;collapsible=0;dropTarget=0;points=[[0,0.5],[1,0.5]];portConstraint=eastwest;top=0;left=0;right=0;bottom=0;" vertex="1" parent="BvxNHtZPLVj_3CfEgY2a-32">
          <mxGeometry y="150" width="180" height="30" as="geometry" />
        </mxCell>
        <mxCell id="BvxNHtZPLVj_3CfEgY2a-47" value="" style="shape=partialRectangle;connectable=0;fillColor=none;top=0;left=0;bottom=0;right=0;editable=1;overflow=hidden;" vertex="1" parent="BvxNHtZPLVj_3CfEgY2a-46">
          <mxGeometry width="30" height="30" as="geometry">
            <mxRectangle width="30" height="30" as="alternateBounds" />
          </mxGeometry>
        </mxCell>
        <mxCell id="BvxNHtZPLVj_3CfEgY2a-48" value="nacionalidad" style="shape=partialRectangle;connectable=0;fillColor=none;top=0;left=0;bottom=0;right=0;align=left;spacingLeft=6;overflow=hidden;" vertex="1" parent="BvxNHtZPLVj_3CfEgY2a-46">
          <mxGeometry x="30" width="150" height="30" as="geometry">
            <mxRectangle width="150" height="30" as="alternateBounds" />
          </mxGeometry>
        </mxCell>
        <mxCell id="BvxNHtZPLVj_3CfEgY2a-49" value="" style="shape=tableRow;horizontal=0;startSize=0;swimlaneHead=0;swimlaneBody=0;fillColor=none;collapsible=0;dropTarget=0;points=[[0,0.5],[1,0.5]];portConstraint=eastwest;top=0;left=0;right=0;bottom=0;" vertex="1" parent="BvxNHtZPLVj_3CfEgY2a-32">
          <mxGeometry y="180" width="180" height="30" as="geometry" />
        </mxCell>
        <mxCell id="BvxNHtZPLVj_3CfEgY2a-50" value="" style="shape=partialRectangle;connectable=0;fillColor=none;top=0;left=0;bottom=0;right=0;editable=1;overflow=hidden;" vertex="1" parent="BvxNHtZPLVj_3CfEgY2a-49">
          <mxGeometry width="30" height="30" as="geometry">
            <mxRectangle width="30" height="30" as="alternateBounds" />
          </mxGeometry>
        </mxCell>
        <mxCell id="BvxNHtZPLVj_3CfEgY2a-51" value="color" style="shape=partialRectangle;connectable=0;fillColor=none;top=0;left=0;bottom=0;right=0;align=left;spacingLeft=6;overflow=hidden;" vertex="1" parent="BvxNHtZPLVj_3CfEgY2a-49">
          <mxGeometry x="30" width="150" height="30" as="geometry">
            <mxRectangle width="150" height="30" as="alternateBounds" />
          </mxGeometry>
        </mxCell>
        <mxCell id="BvxNHtZPLVj_3CfEgY2a-108" value="" style="shape=tableRow;horizontal=0;startSize=0;swimlaneHead=0;swimlaneBody=0;fillColor=none;collapsible=0;dropTarget=0;points=[[0,0.5],[1,0.5]];portConstraint=eastwest;top=0;left=0;right=0;bottom=0;" vertex="1" parent="BvxNHtZPLVj_3CfEgY2a-32">
          <mxGeometry y="210" width="180" height="30" as="geometry" />
        </mxCell>
        <mxCell id="BvxNHtZPLVj_3CfEgY2a-109" value="FK" style="shape=partialRectangle;connectable=0;fillColor=none;top=0;left=0;bottom=0;right=0;editable=1;overflow=hidden;" vertex="1" parent="BvxNHtZPLVj_3CfEgY2a-108">
          <mxGeometry width="30" height="30" as="geometry">
            <mxRectangle width="30" height="30" as="alternateBounds" />
          </mxGeometry>
        </mxCell>
        <mxCell id="BvxNHtZPLVj_3CfEgY2a-110" value="ciudad natal" style="shape=partialRectangle;connectable=0;fillColor=none;top=0;left=0;bottom=0;right=0;align=left;spacingLeft=6;overflow=hidden;" vertex="1" parent="BvxNHtZPLVj_3CfEgY2a-108">
          <mxGeometry x="30" width="150" height="30" as="geometry">
            <mxRectangle width="150" height="30" as="alternateBounds" />
          </mxGeometry>
        </mxCell>
        <mxCell id="BvxNHtZPLVj_3CfEgY2a-68" value="" style="shape=tableRow;horizontal=0;startSize=0;swimlaneHead=0;swimlaneBody=0;fillColor=none;collapsible=0;dropTarget=0;points=[[0,0.5],[1,0.5]];portConstraint=eastwest;top=0;left=0;right=0;bottom=0;" vertex="1" parent="BvxNHtZPLVj_3CfEgY2a-32">
          <mxGeometry y="240" width="180" height="30" as="geometry" />
        </mxCell>
        <mxCell id="BvxNHtZPLVj_3CfEgY2a-69" value="FK" style="shape=partialRectangle;connectable=0;fillColor=none;top=0;left=0;bottom=0;right=0;editable=1;overflow=hidden;" vertex="1" parent="BvxNHtZPLVj_3CfEgY2a-68">
          <mxGeometry width="30" height="30" as="geometry">
            <mxRectangle width="30" height="30" as="alternateBounds" />
          </mxGeometry>
        </mxCell>
        <mxCell id="BvxNHtZPLVj_3CfEgY2a-70" value="ciudad residencia" style="shape=partialRectangle;connectable=0;fillColor=none;top=0;left=0;bottom=0;right=0;align=left;spacingLeft=6;overflow=hidden;" vertex="1" parent="BvxNHtZPLVj_3CfEgY2a-68">
          <mxGeometry x="30" width="150" height="30" as="geometry">
            <mxRectangle width="150" height="30" as="alternateBounds" />
          </mxGeometry>
        </mxCell>
        <mxCell id="BvxNHtZPLVj_3CfEgY2a-52" value="ciudades" style="shape=table;startSize=30;container=1;collapsible=1;childLayout=tableLayout;fixedRows=1;rowLines=0;fontStyle=1;align=center;resizeLast=1;html=1;" vertex="1" parent="1">
          <mxGeometry x="370" y="360" width="180" height="150" as="geometry" />
        </mxCell>
        <mxCell id="BvxNHtZPLVj_3CfEgY2a-53" value="" style="shape=tableRow;horizontal=0;startSize=0;swimlaneHead=0;swimlaneBody=0;fillColor=none;collapsible=0;dropTarget=0;points=[[0,0.5],[1,0.5]];portConstraint=eastwest;top=0;left=0;right=0;bottom=1;" vertex="1" parent="BvxNHtZPLVj_3CfEgY2a-52">
          <mxGeometry y="30" width="180" height="30" as="geometry" />
        </mxCell>
        <mxCell id="BvxNHtZPLVj_3CfEgY2a-54" value="PK" style="shape=partialRectangle;connectable=0;fillColor=none;top=0;left=0;bottom=0;right=0;fontStyle=1;overflow=hidden;whiteSpace=wrap;html=1;" vertex="1" parent="BvxNHtZPLVj_3CfEgY2a-53">
          <mxGeometry width="30" height="30" as="geometry">
            <mxRectangle width="30" height="30" as="alternateBounds" />
          </mxGeometry>
        </mxCell>
        <mxCell id="BvxNHtZPLVj_3CfEgY2a-55" value="ciudad_id" style="shape=partialRectangle;connectable=0;fillColor=none;top=0;left=0;bottom=0;right=0;align=left;spacingLeft=6;fontStyle=5;overflow=hidden;whiteSpace=wrap;html=1;" vertex="1" parent="BvxNHtZPLVj_3CfEgY2a-53">
          <mxGeometry x="30" width="150" height="30" as="geometry">
            <mxRectangle width="150" height="30" as="alternateBounds" />
          </mxGeometry>
        </mxCell>
        <mxCell id="BvxNHtZPLVj_3CfEgY2a-56" value="" style="shape=tableRow;horizontal=0;startSize=0;swimlaneHead=0;swimlaneBody=0;fillColor=none;collapsible=0;dropTarget=0;points=[[0,0.5],[1,0.5]];portConstraint=eastwest;top=0;left=0;right=0;bottom=0;" vertex="1" parent="BvxNHtZPLVj_3CfEgY2a-52">
          <mxGeometry y="60" width="180" height="30" as="geometry" />
        </mxCell>
        <mxCell id="BvxNHtZPLVj_3CfEgY2a-57" value="" style="shape=partialRectangle;connectable=0;fillColor=none;top=0;left=0;bottom=0;right=0;editable=1;overflow=hidden;whiteSpace=wrap;html=1;" vertex="1" parent="BvxNHtZPLVj_3CfEgY2a-56">
          <mxGeometry width="30" height="30" as="geometry">
            <mxRectangle width="30" height="30" as="alternateBounds" />
          </mxGeometry>
        </mxCell>
        <mxCell id="BvxNHtZPLVj_3CfEgY2a-58" value="nombre" style="shape=partialRectangle;connectable=0;fillColor=none;top=0;left=0;bottom=0;right=0;align=left;spacingLeft=6;overflow=hidden;whiteSpace=wrap;html=1;" vertex="1" parent="BvxNHtZPLVj_3CfEgY2a-56">
          <mxGeometry x="30" width="150" height="30" as="geometry">
            <mxRectangle width="150" height="30" as="alternateBounds" />
          </mxGeometry>
        </mxCell>
        <mxCell id="BvxNHtZPLVj_3CfEgY2a-59" value="" style="shape=tableRow;horizontal=0;startSize=0;swimlaneHead=0;swimlaneBody=0;fillColor=none;collapsible=0;dropTarget=0;points=[[0,0.5],[1,0.5]];portConstraint=eastwest;top=0;left=0;right=0;bottom=0;" vertex="1" parent="BvxNHtZPLVj_3CfEgY2a-52">
          <mxGeometry y="90" width="180" height="30" as="geometry" />
        </mxCell>
        <mxCell id="BvxNHtZPLVj_3CfEgY2a-60" value="FK" style="shape=partialRectangle;connectable=0;fillColor=none;top=0;left=0;bottom=0;right=0;editable=1;overflow=hidden;whiteSpace=wrap;html=1;" vertex="1" parent="BvxNHtZPLVj_3CfEgY2a-59">
          <mxGeometry width="30" height="30" as="geometry">
            <mxRectangle width="30" height="30" as="alternateBounds" />
          </mxGeometry>
        </mxCell>
        <mxCell id="BvxNHtZPLVj_3CfEgY2a-61" value="provincia" style="shape=partialRectangle;connectable=0;fillColor=none;top=0;left=0;bottom=0;right=0;align=left;spacingLeft=6;overflow=hidden;whiteSpace=wrap;html=1;" vertex="1" parent="BvxNHtZPLVj_3CfEgY2a-59">
          <mxGeometry x="30" width="150" height="30" as="geometry">
            <mxRectangle width="150" height="30" as="alternateBounds" />
          </mxGeometry>
        </mxCell>
        <mxCell id="BvxNHtZPLVj_3CfEgY2a-85" value="" style="shape=tableRow;horizontal=0;startSize=0;swimlaneHead=0;swimlaneBody=0;fillColor=none;collapsible=0;dropTarget=0;points=[[0,0.5],[1,0.5]];portConstraint=eastwest;top=0;left=0;right=0;bottom=0;" vertex="1" parent="BvxNHtZPLVj_3CfEgY2a-52">
          <mxGeometry y="120" width="180" height="30" as="geometry" />
        </mxCell>
        <mxCell id="BvxNHtZPLVj_3CfEgY2a-86" value="" style="shape=partialRectangle;connectable=0;fillColor=none;top=0;left=0;bottom=0;right=0;editable=1;overflow=hidden;" vertex="1" parent="BvxNHtZPLVj_3CfEgY2a-85">
          <mxGeometry width="30" height="30" as="geometry">
            <mxRectangle width="30" height="30" as="alternateBounds" />
          </mxGeometry>
        </mxCell>
        <mxCell id="BvxNHtZPLVj_3CfEgY2a-87" value="pais" style="shape=partialRectangle;connectable=0;fillColor=none;top=0;left=0;bottom=0;right=0;align=left;spacingLeft=6;overflow=hidden;" vertex="1" parent="BvxNHtZPLVj_3CfEgY2a-85">
          <mxGeometry x="30" width="150" height="30" as="geometry">
            <mxRectangle width="150" height="30" as="alternateBounds" />
          </mxGeometry>
        </mxCell>
        <mxCell id="BvxNHtZPLVj_3CfEgY2a-88" value="provincias" style="shape=table;startSize=30;container=1;collapsible=1;childLayout=tableLayout;fixedRows=1;rowLines=0;fontStyle=1;align=center;resizeLast=1;html=1;" vertex="1" parent="1">
          <mxGeometry x="650" y="360" width="180" height="90" as="geometry" />
        </mxCell>
        <mxCell id="BvxNHtZPLVj_3CfEgY2a-89" value="" style="shape=tableRow;horizontal=0;startSize=0;swimlaneHead=0;swimlaneBody=0;fillColor=none;collapsible=0;dropTarget=0;points=[[0,0.5],[1,0.5]];portConstraint=eastwest;top=0;left=0;right=0;bottom=1;" vertex="1" parent="BvxNHtZPLVj_3CfEgY2a-88">
          <mxGeometry y="30" width="180" height="30" as="geometry" />
        </mxCell>
        <mxCell id="BvxNHtZPLVj_3CfEgY2a-90" value="PK" style="shape=partialRectangle;connectable=0;fillColor=none;top=0;left=0;bottom=0;right=0;fontStyle=1;overflow=hidden;whiteSpace=wrap;html=1;" vertex="1" parent="BvxNHtZPLVj_3CfEgY2a-89">
          <mxGeometry width="30" height="30" as="geometry">
            <mxRectangle width="30" height="30" as="alternateBounds" />
          </mxGeometry>
        </mxCell>
        <mxCell id="BvxNHtZPLVj_3CfEgY2a-91" value="provincia_id" style="shape=partialRectangle;connectable=0;fillColor=none;top=0;left=0;bottom=0;right=0;align=left;spacingLeft=6;fontStyle=5;overflow=hidden;whiteSpace=wrap;html=1;" vertex="1" parent="BvxNHtZPLVj_3CfEgY2a-89">
          <mxGeometry x="30" width="150" height="30" as="geometry">
            <mxRectangle width="150" height="30" as="alternateBounds" />
          </mxGeometry>
        </mxCell>
        <mxCell id="BvxNHtZPLVj_3CfEgY2a-92" value="" style="shape=tableRow;horizontal=0;startSize=0;swimlaneHead=0;swimlaneBody=0;fillColor=none;collapsible=0;dropTarget=0;points=[[0,0.5],[1,0.5]];portConstraint=eastwest;top=0;left=0;right=0;bottom=0;" vertex="1" parent="BvxNHtZPLVj_3CfEgY2a-88">
          <mxGeometry y="60" width="180" height="30" as="geometry" />
        </mxCell>
        <mxCell id="BvxNHtZPLVj_3CfEgY2a-93" value="" style="shape=partialRectangle;connectable=0;fillColor=none;top=0;left=0;bottom=0;right=0;editable=1;overflow=hidden;whiteSpace=wrap;html=1;" vertex="1" parent="BvxNHtZPLVj_3CfEgY2a-92">
          <mxGeometry width="30" height="30" as="geometry">
            <mxRectangle width="30" height="30" as="alternateBounds" />
          </mxGeometry>
        </mxCell>
        <mxCell id="BvxNHtZPLVj_3CfEgY2a-94" value="nombre" style="shape=partialRectangle;connectable=0;fillColor=none;top=0;left=0;bottom=0;right=0;align=left;spacingLeft=6;overflow=hidden;whiteSpace=wrap;html=1;" vertex="1" parent="BvxNHtZPLVj_3CfEgY2a-92">
          <mxGeometry x="30" width="150" height="30" as="geometry">
            <mxRectangle width="150" height="30" as="alternateBounds" />
          </mxGeometry>
        </mxCell>
        <mxCell id="BvxNHtZPLVj_3CfEgY2a-113" style="edgeStyle=orthogonalEdgeStyle;rounded=0;orthogonalLoop=1;jettySize=auto;html=1;entryX=0;entryY=0.5;entryDx=0;entryDy=0;" edge="1" parent="1" source="BvxNHtZPLVj_3CfEgY2a-108" target="BvxNHtZPLVj_3CfEgY2a-53">
          <mxGeometry relative="1" as="geometry" />
        </mxCell>
        <mxCell id="BvxNHtZPLVj_3CfEgY2a-114" style="edgeStyle=orthogonalEdgeStyle;rounded=0;orthogonalLoop=1;jettySize=auto;html=1;entryX=0;entryY=0.5;entryDx=0;entryDy=0;" edge="1" parent="1" source="BvxNHtZPLVj_3CfEgY2a-59" target="BvxNHtZPLVj_3CfEgY2a-89">
          <mxGeometry relative="1" as="geometry" />
        </mxCell>
        <mxCell id="BvxNHtZPLVj_3CfEgY2a-115" style="edgeStyle=orthogonalEdgeStyle;rounded=0;orthogonalLoop=1;jettySize=auto;html=1;entryX=0;entryY=0.5;entryDx=0;entryDy=0;" edge="1" parent="1" source="BvxNHtZPLVj_3CfEgY2a-68" target="BvxNHtZPLVj_3CfEgY2a-53">
          <mxGeometry relative="1" as="geometry" />
        </mxCell>
      </root>
    </mxGraphModel>
  </diagram>
</mxfile>
